<svg xmlns="http://www.w3.org/2000/svg" width="1060" height="720" viewBox="0 0 1060 720" font-family="'IBM Plex Sans Arabic','IBM Plex Sans','Segoe UI','Tajawal',system-ui,sans-serif">
  <defs>
    <linearGradient id="bg" x1="0" y1="0" x2="1" y2="1">
      <stop offset="0" stop-color="#2A2019"/>
      <stop offset="0.55" stop-color="#211913"/>
      <stop offset="1" stop-color="#15110D"/>
    </linearGradient>
    <radialGradient id="glowCoral" cx="0.5" cy="0.5" r="0.5">
      <stop offset="0" stop-color="#E15A30" stop-opacity="0.55"/>
      <stop offset="1" stop-color="#E15A30" stop-opacity="0"/>
    </radialGradient>
    <radialGradient id="glowGreen" cx="0.5" cy="0.5" r="0.5">
      <stop offset="0" stop-color="#1E7A52" stop-opacity="0.42"/>
      <stop offset="1" stop-color="#1E7A52" stop-opacity="0"/>
    </radialGradient>
    <radialGradient id="glowAmber" cx="0.5" cy="0.5" r="0.5">
      <stop offset="0" stop-color="#E0A02C" stop-opacity="0.38"/>
      <stop offset="1" stop-color="#E0A02C" stop-opacity="0"/>
    </radialGradient>
    <linearGradient id="greet" x1="1" y1="0" x2="0" y2="1">
      <stop offset="0" stop-color="#E15A30"/>
      <stop offset="1" stop-color="#1F1A13"/>
    </linearGradient>
    <linearGradient id="greetEn" x1="0" y1="0" x2="1" y2="1">
      <stop offset="0" stop-color="#E15A30"/>
      <stop offset="1" stop-color="#1F1A13"/>
    </linearGradient>
    <filter id="ph" x="-40%" y="-40%" width="180%" height="180%">
      <feDropShadow dx="0" dy="26" stdDeviation="34" flood-color="#000000" flood-opacity="0.45"/>
    </filter>
  </defs>

  <!-- الخلفية -->
  <rect width="1060" height="720" rx="30" fill="url(#bg)"/>
  <ellipse cx="880" cy="90" rx="360" ry="300" fill="url(#glowCoral)"/>
  <ellipse cx="120" cy="640" rx="340" ry="300" fill="url(#glowGreen)"/>
  <ellipse cx="230" cy="70" rx="240" ry="200" fill="url(#glowAmber)"/>

  <!-- رمز الهوية: المسار الصاعد (أكسسوار خلفي) -->
  <g opacity="0.5" stroke-linecap="round" stroke-linejoin="round" fill="none">
    <polyline points="60,660 150,570 250,600" stroke="#E15A30" stroke-width="6"/>
    <circle cx="60" cy="660" r="9" fill="#E15A30" stroke="none"/>
    <circle cx="250" cy="600" r="11" fill="#1E7A52" stroke="none"/>
  </g>

  <!-- ============ الجوال الأيمن (خلف) — إنجليزي LTR ============ -->
  <g transform="translate(566,44) rotate(4.5)" filter="url(#ph)">
    <rect width="300" height="616" rx="42" fill="#0C0C0D"/>
    <rect x="8" y="8" width="284" height="600" rx="35" fill="#FFFFFF"/>
    <rect x="112" y="15" width="76" height="19" rx="9.5" fill="#0C0C0D"/>
    <g font-size="10" fill="#6E6557" font-weight="600">
      <text x="26" y="52">9:41</text>
      <rect x="238" y="45" width="16" height="9" rx="2" fill="none" stroke="#9A8F7E" stroke-width="1.2"/>
      <rect x="240" y="47" width="10" height="5" rx="1" fill="#1F1A13"/>
      <circle cx="262" cy="49" r="3.5" fill="#9A8F7E"/>
    </g>

    <!-- greeting -->
    <rect x="22" y="66" width="256" height="72" rx="18" fill="url(#greetEn)"/>
    <circle cx="48" cy="102" r="21" fill="#FFFFFF" fill-opacity="0.18"/>
    <circle cx="48" cy="95" r="7" fill="#FFFFFF"/><path d="M35 116a13 13 0 0 1 26 0z" fill="#FFFFFF"/>
    <text x="80" y="97" font-size="11" fill="#F6DBD0">Hi,</text>
    <text x="80" y="118" font-size="17" font-weight="700" fill="#FFFFFF">Laura Chen</text>

    <!-- collection balance -->
    <rect x="22" y="150" width="256" height="56" rx="16" fill="#F1FAF5" stroke="#CFEEDF"/>
    <rect x="32" y="163" width="32" height="32" rx="10" fill="#E1F4EA"/>
    <path d="M42 179v10m6-13v13m-9-10h12" stroke="#1E7A52" stroke-width="1.6" stroke-linecap="round"/>
    <text x="76" y="174" font-size="10.5" fill="#6E6557">Your balance</text>
    <text x="76" y="194" font-size="16" font-weight="800" fill="#1E7A52">9,270 SAR</text>

    <!-- today's stats -->
    <text x="22" y="230" font-size="13" font-weight="700" fill="#1F1A13">Today's stats</text>
    <!-- s1 sales -->
    <rect x="22" y="242" width="122" height="68" rx="16" fill="#FBEBE2"/>
    <rect x="34" y="254" width="26" height="26" rx="8" fill="#F6D5C7"/><path d="M40 272l6-7 4 3 6-8" stroke="#E15A30" stroke-width="2" fill="none" stroke-linecap="round"/>
    <text x="94" y="272" font-size="9" fill="#8A5B45">Sales</text>
    <text x="34" y="298" font-size="15" font-weight="800" fill="#E15A30">4,250</text>
    <!-- s2 collected -->
    <rect x="156" y="242" width="122" height="68" rx="16" fill="#EAF7F0"/>
    <rect x="168" y="254" width="26" height="26" rx="8" fill="#D3EEDF"/><path d="M175 265v10m6-13v13m-9-10h12" stroke="#1E7A52" stroke-width="1.6" stroke-linecap="round"/>
    <text x="168" y="296" font-size="15" font-weight="800" fill="#1E7A52">2,100</text>
    <text x="228" y="272" font-size="9" fill="#5E8A73">Collected</text>
    <!-- s3 invoices -->
    <rect x="22" y="318" width="122" height="68" rx="16" fill="#FEF1E3"/>
    <rect x="34" y="330" width="26" height="26" rx="8" fill="#F8DFC2"/><path d="M41 337h9v11h-9zm2 3h5m-5 3h5" stroke="#D97A2B" stroke-width="1.4" fill="none" stroke-linecap="round"/>
    <text x="34" y="372" font-size="15" font-weight="800" fill="#D97A2B">8</text>
    <text x="60" y="348" font-size="9" fill="#A8703A">Invoices</text>
    <!-- s4 receipts -->
    <rect x="156" y="318" width="122" height="68" rx="16" fill="#F3EEFB"/>
    <rect x="168" y="330" width="26" height="26" rx="8" fill="#E3D9F5"/><rect x="174" y="337" width="14" height="10" rx="2" stroke="#7C5CBF" stroke-width="1.4" fill="none"/><path d="M174 341h14" stroke="#7C5CBF" stroke-width="1.4"/>
    <text x="168" y="372" font-size="15" font-weight="800" fill="#7C5CBF">5</text>
    <text x="194" y="348" font-size="9" fill="#6B57A0">Receipts</text>

    <!-- quick actions -->
    <text x="22" y="414" font-size="13" font-weight="700" fill="#1F1A13">Quick actions</text>
    <g>
      <rect x="22" y="426" width="80" height="58" rx="15" fill="#FBEBE2"/><rect x="52" y="438" width="20" height="16" rx="3" stroke="#E15A30" stroke-width="1.6" fill="none"/><text x="62" y="476" font-size="9.5" font-weight="600" fill="#E15A30" text-anchor="middle">Invoice</text>
      <rect x="110" y="426" width="80" height="58" rx="15" fill="#EAF7F0"/><path d="M150 438v16m5-12h-8a2 2 0 0 0 0 4h6a2 2 0 0 1 0 4h-8" stroke="#1E7A52" stroke-width="1.4" fill="none" stroke-linecap="round"/><text x="150" y="476" font-size="9.5" font-weight="600" fill="#1E7A52" text-anchor="middle">Receipt</text>
      <rect x="198" y="426" width="80" height="58" rx="15" fill="#FEF1E3"/><circle cx="238" cy="443" r="5" stroke="#D97A2B" stroke-width="1.5" fill="none"/><path d="M230 456a8 8 0 0 1 16 0" stroke="#D97A2B" stroke-width="1.5" fill="none"/><text x="238" y="476" font-size="9.5" font-weight="600" fill="#D97A2B" text-anchor="middle">Customers</text>
    </g>

    <!-- bottom nav -->
    <rect x="8" y="552" width="284" height="56" rx="0" fill="#FFFFFF"/><line x1="8" y1="552" x2="292" y2="552" stroke="#F1EBDF" stroke-width="1"/>
    <g font-size="8" text-anchor="middle">
      <g fill="#E15A30"><rect x="43" y="566" width="14" height="12" rx="2" fill="none" stroke="#E15A30" stroke-width="1.5"/><text x="50" y="592">Home</text></g>
      <g fill="#9A8F7E"><rect x="100" y="566" width="11" height="13" rx="1.5" fill="none" stroke="#9A8F7E" stroke-width="1.4"/><text x="106" y="592">Invoices</text></g>
      <g fill="#9A8F7E"><rect x="156" y="568" width="15" height="10" rx="2" fill="none" stroke="#9A8F7E" stroke-width="1.4"/><text x="164" y="592">Collect</text></g>
      <g fill="#9A8F7E"><circle cx="220" cy="570" r="4" fill="none" stroke="#9A8F7E" stroke-width="1.4"/><text x="220" y="592">Customers</text></g>
      <g fill="#9A8F7E"><rect x="270" y="568" width="16" height="10" rx="2" fill="none" stroke="#9A8F7E" stroke-width="1.4"/><text x="278" y="592">Stock</text></g>
    </g>
  </g>

  <!-- ============ الجوال الأيسر (أمام) — عربي RTL ============ -->
  <g transform="translate(196,84) rotate(-4.5)" filter="url(#ph)">
    <rect width="300" height="616" rx="42" fill="#0C0C0D"/>
    <rect x="8" y="8" width="284" height="600" rx="35" fill="#FFFFFF"/>
    <rect x="112" y="15" width="76" height="19" rx="9.5" fill="#0C0C0D"/>
    <g font-size="10" fill="#6E6557" font-weight="600">
      <text x="254" y="52" text-anchor="end">9:41</text>
      <rect x="34" y="45" width="16" height="9" rx="2" fill="none" stroke="#9A8F7E" stroke-width="1.2"/><rect x="36" y="47" width="10" height="5" rx="1" fill="#1F1A13"/>
      <circle cx="60" cy="49" r="3.5" fill="#9A8F7E"/>
    </g>

    <!-- الترحيب -->
    <rect x="22" y="66" width="256" height="72" rx="18" fill="url(#greet)"/>
    <circle cx="252" cy="102" r="21" fill="#FFFFFF" fill-opacity="0.18"/>
    <circle cx="252" cy="95" r="7" fill="#FFFFFF"/><path d="M239 116a13 13 0 0 1 26 0z" fill="#FFFFFF"/>
    <text x="220" y="97" font-size="11" fill="#F6DBD0" text-anchor="end">مرحباً،</text>
    <text x="220" y="118" font-size="17" font-weight="700" fill="#FFFFFF" text-anchor="end">خالد العتيبي</text>

    <!-- رصيد التحصيل -->
    <rect x="22" y="150" width="256" height="56" rx="16" fill="#F1FAF5" stroke="#CFEEDF"/>
    <rect x="236" y="163" width="32" height="32" rx="10" fill="#E1F4EA"/>
    <path d="M246 179v10m6-13v13m-9-10h12" stroke="#1E7A52" stroke-width="1.6" stroke-linecap="round"/>
    <text x="224" y="174" font-size="10.5" fill="#6E6557" text-anchor="end">رصيد التحصيل لديك</text>
    <text x="224" y="194" font-size="16" font-weight="800" fill="#1E7A52" text-anchor="end">٩٬٢٧٠ ر.س</text>

    <!-- إحصائيات اليوم -->
    <text x="278" y="230" font-size="13" font-weight="700" fill="#1F1A13" text-anchor="end">إحصائيات اليوم</text>
    <!-- المبيعات (يمين) -->
    <rect x="156" y="242" width="122" height="68" rx="16" fill="#FBEBE2"/>
    <rect x="242" y="254" width="26" height="26" rx="8" fill="#F6D5C7"/><path d="M248 272l6-7 4 3 6-8" stroke="#E15A30" stroke-width="2" fill="none" stroke-linecap="round"/>
    <text x="266" y="296" font-size="15" font-weight="800" fill="#E15A30" text-anchor="end">٤٬٢٥٠</text>
    <text x="266" y="272" font-size="9" fill="#8A5B45" text-anchor="end">المبيعات</text>
    <!-- تحصيل اليوم (يسار) -->
    <rect x="22" y="242" width="122" height="68" rx="16" fill="#EAF7F0"/>
    <rect x="108" y="254" width="26" height="26" rx="8" fill="#D3EEDF"/><path d="M114 265v10m6-13v13m-9-10h12" stroke="#1E7A52" stroke-width="1.6" stroke-linecap="round"/>
    <text x="132" y="296" font-size="15" font-weight="800" fill="#1E7A52" text-anchor="end">٢٬١٠٠</text>
    <text x="132" y="272" font-size="9" fill="#5E8A73" text-anchor="end">تحصيل اليوم</text>
    <!-- الفواتير (يمين) -->
    <rect x="156" y="318" width="122" height="68" rx="16" fill="#FEF1E3"/>
    <rect x="242" y="330" width="26" height="26" rx="8" fill="#F8DFC2"/><path d="M249 337h9v11h-9zm2 3h5m-5 3h5" stroke="#D97A2B" stroke-width="1.4" fill="none" stroke-linecap="round"/>
    <text x="266" y="372" font-size="15" font-weight="800" fill="#D97A2B" text-anchor="end">٨</text>
    <text x="266" y="348" font-size="9" fill="#A8703A" text-anchor="end">الفواتير</text>
    <!-- سندات القبض (يسار) -->
    <rect x="22" y="318" width="122" height="68" rx="16" fill="#F3EEFB"/>
    <rect x="108" y="330" width="26" height="26" rx="8" fill="#E3D9F5"/><rect x="114" y="337" width="14" height="10" rx="2" stroke="#7C5CBF" stroke-width="1.4" fill="none"/><path d="M114 341h14" stroke="#7C5CBF" stroke-width="1.4"/>
    <text x="132" y="372" font-size="15" font-weight="800" fill="#7C5CBF" text-anchor="end">٥</text>
    <text x="132" y="348" font-size="9" fill="#6B57A0" text-anchor="end">سندات القبض</text>

    <!-- إجراءات سريعة -->
    <text x="278" y="414" font-size="13" font-weight="700" fill="#1F1A13" text-anchor="end">إجراءات سريعة</text>
    <g>
      <rect x="198" y="426" width="80" height="58" rx="15" fill="#FBEBE2"/><rect x="228" y="438" width="20" height="16" rx="3" stroke="#E15A30" stroke-width="1.6" fill="none"/><text x="238" y="476" font-size="10" font-weight="600" fill="#E15A30" text-anchor="middle">فاتورة</text>
      <rect x="110" y="426" width="80" height="58" rx="15" fill="#EAF7F0"/><path d="M150 438v16m5-12h-8a2 2 0 0 0 0 4h6a2 2 0 0 1 0 4h-8" stroke="#1E7A52" stroke-width="1.4" fill="none" stroke-linecap="round"/><text x="150" y="476" font-size="10" font-weight="600" fill="#1E7A52" text-anchor="middle">سند قبض</text>
      <rect x="22" y="426" width="80" height="58" rx="15" fill="#FEF1E3"/><circle cx="62" cy="443" r="5" stroke="#D97A2B" stroke-width="1.5" fill="none"/><path d="M54 456a8 8 0 0 1 16 0" stroke="#D97A2B" stroke-width="1.5" fill="none"/><text x="62" y="476" font-size="10" font-weight="600" fill="#D97A2B" text-anchor="middle">العملاء</text>
    </g>

    <!-- شريط التبويبات -->
    <rect x="8" y="552" width="284" height="56" fill="#FFFFFF"/><line x1="8" y1="552" x2="292" y2="552" stroke="#F1EBDF" stroke-width="1"/>
    <g font-size="8.5" text-anchor="middle">
      <g fill="#E15A30"><rect x="243" y="566" width="14" height="12" rx="2" fill="none" stroke="#E15A30" stroke-width="1.5"/><text x="250" y="592">الرئيسية</text></g>
      <g fill="#9A8F7E"><rect x="194" y="566" width="11" height="13" rx="1.5" fill="none" stroke="#9A8F7E" stroke-width="1.4"/><text x="200" y="592">الفواتير</text></g>
      <g fill="#9A8F7E"><rect x="142" y="568" width="15" height="10" rx="2" fill="none" stroke="#9A8F7E" stroke-width="1.4"/><text x="150" y="592">التحصيل</text></g>
      <g fill="#9A8F7E"><circle cx="100" cy="570" r="4" fill="none" stroke="#9A8F7E" stroke-width="1.4"/><text x="100" y="592">العملاء</text></g>
      <g fill="#9A8F7E"><rect x="42" y="568" width="16" height="10" rx="2" fill="none" stroke="#9A8F7E" stroke-width="1.4"/><text x="50" y="592">مخزوني</text></g>
    </g>
  </g>
</svg>
